<svg width="200" height="60" viewBox="0 0 200 60" fill="none" xmlns="http://www.w3.org/2000/svg">
  <path d="M10 30C10 18.9543 18.9543 10 30 10H170C181.046 10 190 18.9543 190 30C190 41.0457 181.046 50 170 50H30C18.9543 50 10 41.0457 10 30Z" fill="#F97316"/>
  <path d="M20 30C20 23.3726 25.3726 18 32 18H168C174.627 18 180 23.3726 180 30C180 36.6274 174.627 42 168 42H32C25.3726 42 20 36.6274 20 30Z" fill="#3B82F6"/>
  <text x="50%" y="50%" font-family="Arial, sans-serif" font-size="24" font-weight="bold" fill="black" text-anchor="middle" alignment-baseline="middle">MEK ROK</text>
</svg>